<svg width="1240" height="502" viewBox="0 0 1240 502" fill="none" xmlns="http://www.w3.org/2000/svg">
<path d="M0 10.1174H62.1172C78.9162 10.1174 91.8084 12.7955 100.794 18.1517C109.877 23.508 116.665 31.2448 121.158 41.3622C125.748 51.4795 128.825 63.7791 130.388 78.2608C132.048 92.5442 132.878 114.763 132.878 144.916V186.874C132.878 217.623 131.315 240.04 128.19 254.124C125.065 268.209 119.302 279.021 110.903 286.56C102.601 294.098 91.7108 297.867 78.2325 297.867H61.6777V491.883H0V10.1174ZM61.6777 92.5442V215.143C63.4357 215.341 64.9496 215.44 66.2193 215.44C71.8841 215.44 75.7908 212.663 77.9395 207.108C80.1859 201.355 81.3091 189.552 81.3091 171.698V132.121C81.3091 115.655 80.0394 104.943 77.5 99.9834C74.9606 95.0239 69.6865 92.5442 61.6777 92.5442Z" fill="#0077FF"/>
<path d="M291.541 292.213C291.541 340.618 290.955 374.938 289.783 395.172C288.708 415.209 285.192 433.559 279.234 450.223C273.374 466.887 265.414 479.682 255.354 488.609C245.295 497.536 233.574 502 220.194 502C207.497 502 196.07 497.834 185.912 489.502C175.852 480.972 167.746 468.275 161.593 451.413C155.439 434.551 151.777 416.201 150.605 396.363C149.433 376.525 148.847 341.808 148.847 292.213V209.787C148.847 161.382 149.384 127.161 150.458 107.125C151.63 86.8903 155.146 68.441 161.007 51.7771C166.964 35.1132 174.973 22.3177 185.033 13.3906C195.093 4.46354 206.813 0 220.194 0C232.891 0 244.269 4.26516 254.329 12.7955C264.486 21.1274 272.642 33.7246 278.795 50.5868C284.948 67.4491 288.611 85.7992 289.783 105.637C290.955 125.475 291.541 160.192 291.541 209.787V292.213ZM229.863 133.906C229.863 111.489 229.228 97.2061 227.958 91.0563C226.786 84.7082 224.296 81.5341 220.487 81.5341C217.264 81.5341 214.773 84.113 213.015 89.2709C211.355 94.2304 210.525 109.109 210.525 133.906V358.869C210.525 386.841 211.062 404.1 212.136 410.646C213.308 417.193 215.945 420.466 220.047 420.466C224.247 420.466 226.933 416.697 228.105 409.158C229.277 401.62 229.863 383.666 229.863 355.298V133.906Z" fill="#0077FF"/>
<path d="M314.688 10.1174H358.346C387.451 10.1174 407.131 12.3987 417.387 16.9615C427.739 21.5242 436.139 33.2286 442.585 52.0747C449.129 70.7224 452.401 100.579 452.401 141.643C452.401 179.137 450.106 204.331 445.515 217.226C440.925 230.121 431.89 237.857 418.412 240.436C430.621 246.586 438.825 254.819 443.025 265.135C447.224 275.45 449.813 284.973 450.789 293.701C451.864 302.232 452.401 325.938 452.401 364.82V491.883H395.118V331.79C395.118 306.001 394.093 290.031 392.042 283.881C390.088 277.732 384.863 274.657 376.366 274.657V491.883H314.688V10.1174ZM376.366 92.5442V199.669C383.3 199.669 388.135 197.785 390.87 194.015C393.702 190.048 395.118 177.451 395.118 156.224V129.74C395.118 114.465 393.751 104.447 391.016 99.6858C388.379 94.9247 383.496 92.5442 376.366 92.5442Z" fill="#0077FF"/>
<path d="M600.662 10.1174V106.53H564.036V491.883H502.358V106.53H465.879V10.1174H600.662Z" fill="#0077FF"/>
<path d="M614.726 10.1174H719.182V106.53H676.404V197.884H714.494V289.535H676.404V491.883H614.726V10.1174Z" fill="#0077FF"/>
<path d="M875.208 292.213C875.208 340.618 874.622 374.938 873.45 395.172C872.376 415.209 868.859 433.559 862.902 450.223C857.042 466.887 849.082 479.682 839.022 488.609C828.962 497.536 817.242 502 803.861 502C791.164 502 779.737 497.834 769.579 489.502C759.52 480.972 751.413 468.275 745.26 451.413C739.107 434.551 735.444 416.201 734.272 396.363C733.1 376.525 732.514 341.808 732.514 292.213V209.787C732.514 161.382 733.051 127.161 734.126 107.125C735.298 86.8903 738.814 68.441 744.674 51.7771C750.632 35.1132 758.641 22.3177 768.7 13.3906C778.76 4.46354 790.48 0 803.861 0C816.558 0 827.936 4.26516 837.996 12.7955C848.154 21.1274 856.309 33.7246 862.462 50.5868C868.615 67.4491 872.278 85.7992 873.45 105.637C874.622 125.475 875.208 160.192 875.208 209.787V292.213ZM813.53 133.906C813.53 111.489 812.895 97.2061 811.626 91.0563C810.454 84.7082 807.963 81.5341 804.154 81.5341C800.931 81.5341 798.44 84.113 796.682 89.2709C795.022 94.2304 794.192 109.109 794.192 133.906V358.869C794.192 386.841 794.729 404.1 795.803 410.646C796.975 417.193 799.612 420.466 803.715 420.466C807.914 420.466 810.6 416.697 811.772 409.158C812.944 401.62 813.53 383.666 813.53 355.298V133.906Z" fill="#0077FF"/>
<path d="M960.033 10.1174V395.47H997.538V491.883H898.355V10.1174H960.033Z" fill="#0077FF"/>
<path d="M1074.31 10.1174V491.883H1012.63V10.1174H1074.31Z" fill="#0077FF"/>
<path d="M1240 292.213C1240 340.618 1239.41 374.938 1238.24 395.172C1237.17 415.209 1233.65 433.559 1227.69 450.223C1221.83 466.887 1213.87 479.682 1203.81 488.609C1193.75 497.536 1182.03 502 1168.65 502C1155.96 502 1144.53 497.834 1134.37 489.502C1124.31 480.972 1116.21 468.275 1110.05 451.413C1103.9 434.551 1100.24 416.201 1099.06 396.363C1097.89 376.525 1097.31 341.808 1097.31 292.213V209.787C1097.31 161.382 1097.84 127.161 1098.92 107.125C1100.09 86.8903 1103.61 68.441 1109.47 51.7771C1115.42 35.1132 1123.43 22.3177 1133.49 13.3906C1143.55 4.46354 1155.27 0 1168.65 0C1181.35 0 1192.73 4.26516 1202.79 12.7955C1212.95 21.1274 1221.1 33.7246 1227.25 50.5868C1233.41 67.4491 1237.07 85.7992 1238.24 105.637C1239.41 125.475 1240 160.192 1240 209.787V292.213ZM1178.32 133.906C1178.32 111.489 1177.69 97.2061 1176.42 91.0563C1175.25 84.7082 1172.76 81.5341 1168.95 81.5341C1165.72 81.5341 1163.23 84.113 1161.47 89.2709C1159.81 94.2304 1158.98 109.109 1158.98 133.906V358.869C1158.98 386.841 1159.52 404.1 1160.6 410.646C1161.77 417.193 1164.4 420.466 1168.51 420.466C1172.71 420.466 1175.39 416.697 1176.56 409.158C1177.74 401.62 1178.32 383.666 1178.32 355.298V133.906Z" fill="#0077FF"/>
</svg>
